<svg xmlns="http://www.w3.org/2000/svg" data-name="Layer 1" viewBox="0 0 95 90" x="0px" y="0px"><defs><style>.cls-1{fill-rule:evenodd;}</style></defs><title>a</title><path fill="#fff" class="cls-1" d="M92.5,75.447V29.434h-5.25v38.7a2.335,2.335,0,0,1-2.521,2.32c-11.03-.889-20.782.791-29.1,4.994ZM2.5,29.434V75.447H39.381c-8.318-4.2-18.07-5.883-29.1-4.994a2.336,2.336,0,0,1-2.521-2.32v-38.7Zm9.919-9.791c12.788-.653,23.8,2.253,32.757,8.644V73.368c-8.368-5.185-18.178-7.8-29.266-7.8-1.153,0-2.314.028-3.491.087V19.643Zm70.167,0V65.651c-12.531-.6-23.511,1.99-32.758,7.719V28.287C58.787,21.9,69.792,18.991,82.588,19.643Z"/></svg>